<svg xmlns="http://www.w3.org/2000/svg" xmlns:xlink="http://www.w3.org/1999/xlink" height="800" width="1200" viewBox="-45.0006 -44.94475 390.0052 269.6685"><defs><linearGradient gradientTransform="translate(563.82 802.09) scale(13.911)" gradientUnits="userSpaceOnUse" id="a"><stop offset="0" stop-color="#272a62"/><stop offset=".194" stop-color="#572370"/><stop offset=".214" stop-color="#572370"/><stop offset=".229" stop-color="#572370"/><stop offset="1" stop-color="#b0287f"/></linearGradient><linearGradient gradientTransform="rotate(-90 694.58 123.78) scale(16.507)" gradientUnits="userSpaceOnUse" id="b"><stop offset="0" stop-color="#f14822"/><stop offset=".1" stop-color="#f14822"/><stop offset=".917" stop-color="#f58616"/><stop offset="1" stop-color="#f58616"/></linearGradient><linearGradient gradientTransform="translate(563.81 794) scale(13.805)" gradientUnits="userSpaceOnUse" id="c"><stop offset="0" stop-color="#b01938"/><stop offset=".603" stop-color="#e41257"/><stop offset="1" stop-color="#e41257"/></linearGradient><linearGradient gradientTransform="translate(563.82 802.09) scale(13.911)" gradientUnits="userSpaceOnUse" xlink:href="#a" id="g"/><linearGradient gradientTransform="rotate(-90 694.58 123.78) scale(16.507)" gradientUnits="userSpaceOnUse" xlink:href="#b" id="h"/><linearGradient gradientTransform="translate(563.81 794) scale(13.805)" gradientUnits="userSpaceOnUse" xlink:href="#c" id="i"/><linearGradient gradientTransform="translate(563.82 802.09) scale(13.911)" gradientUnits="userSpaceOnUse" id="d" xlink:href="#a"/><linearGradient gradientTransform="rotate(-90 694.58 123.78) scale(16.507)" gradientUnits="userSpaceOnUse" id="e" xlink:href="#b"/><linearGradient gradientTransform="translate(563.81 794) scale(13.805)" gradientUnits="userSpaceOnUse" id="f" xlink:href="#c"/><clipPath clipPathUnits="userSpaceOnUse" id="j"><path d="M0 841.89h595.28V0H0z"/></clipPath></defs><path fill="#ee2280" d="M221.867 90.262l39.078 22.574v-45.12z"/><path fill="#f9b11e" d="M221.867 0v45.142l39.078-22.565z"/><path fill="#f58616" d="M260.934 22.58l-39.079 22.548L260.934 67.7z"/><path fill="url(#d)" d="M563.81 802.07l13.981-8.069v16.144z" transform="matrix(2.7945 0 0 -2.7945 -1314.633 2309.095)"/><path fill="url(#e)" d="M563.81 802.07l13.981 8.075-13.981 8.07z" transform="matrix(2.7945 0 0 -2.7945 -1314.633 2309.095)"/><path fill="url(#f)" d="M563.81 785.93l13.981 8.078-13.981 8.069z" transform="matrix(2.7945 0 0 -2.7945 -1314.633 2309.095)"/><path fill="#ee2280" d="M221.867 90.262l39.078 22.574v-45.12z"/><path fill="#f9b11e" d="M221.867 0v45.142l39.078-22.565z"/><path fill="#f58616" d="M260.934 22.58l-39.079 22.548L260.934 67.7z"/><path fill="url(#g)" d="M563.81 802.07l13.981-8.069v16.144z" transform="matrix(2.7945 0 0 -2.7945 -1314.633 2309.095)"/><path fill="url(#h)" d="M563.81 802.07l13.981 8.075-13.981 8.07z" transform="matrix(2.7945 0 0 -2.7945 -1314.633 2309.095)"/><path fill="url(#i)" d="M563.81 785.93l13.981 8.078-13.981 8.069z" transform="matrix(2.7945 0 0 -2.7945 -1314.633 2309.095)"/><g clip-path="url(#j)" transform="matrix(2.7945 0 0 -2.7945 -1314.633 2309.095)"><path fill="#622691" d="M488.7 785.53c-.576-.598-.803-1.41-.803-2.104v-11.695l-12.273 16.045h-5.188v-25.809h5.549l-.064 16.653 12.73-16.653h4.789v25.823c-.613-.147-3.31-.819-4.74-2.26m18.48-19.38c1.723 0 3.594.465 5.35 1.318v-2.672c0-.554-.059-1.062-.621-1.408-1.655-.926-3.924-1.418-6.417-1.418-5.376 0-10.009 3.592-10.009 10.211 0 5.409 4.256 9.976 10.271 9.976 3.408 0 5.719-1.17 7.705-3.193l-3.16-3.365c-1.459 1.262-2.785 1.835-4.617 1.835-2.742 0-4.766-2.329-4.766-5.253 0-4.24 2.793-6.031 6.264-6.031m11.83 7.38c.207 2.625 2.029 4.428 4.248 4.428 2.547 0 3.998-1.772 4.217-4.428zm13.633-1.849c-.041 5.8-3.084 10.369-9.459 10.369-5.856 0-9.455-4.31-9.455-10.052.082-6.364 4.511-9.967 9.822-9.967 2.48 0 4.764.489 6.395 1.41.554.343.609.835.609 1.39v2.584c-1.736-.842-3.619-1.307-5.336-1.307-2.906 0-5.518 1.258-6.109 4.221h13.451c.082.613.082.908.082 1.352m2.177 12.749c0 .624.199 1.331.705 1.865 1.264 1.263 3.633 1.849 4.182 1.988v-26.255h-4.887zm7.69 0c0 .624.203 1.331.707 1.865 1.264 1.263 3.641 1.849 4.176 1.988v-26.255h-4.883z"/></g></svg>